<svg width="24" height="22" viewBox="0 0 24 22" fill="none" xmlns="http://www.w3.org/2000/svg">
<path d="M16.8 4.20588H19.2V21.5H4.8V4.20588H7.2V2.97059C7.2 2.31535 7.45286 1.68694 7.90294 1.22362C8.35303 0.760293 8.96348 0.5 9.6 0.5H14.4C15.0365 0.5 15.647 0.760293 16.0971 1.22362C16.5471 1.68694 16.8 2.31535 16.8 2.97059V4.20588ZM20.4 4.20588H21.6C22.2365 4.20588 22.847 4.46618 23.2971 4.9295C23.7471 5.39283 24 6.02123 24 6.67647V19.0294C24 19.6847 23.7471 20.3131 23.2971 20.7764C22.847 21.2397 22.2365 21.5 21.6 21.5H20.4V4.20588ZM3.6 4.20588V21.5H2.4C1.76348 21.5 1.15303 21.2397 0.702944 20.7764C0.252856 20.3131 0 19.6847 0 19.0294V6.67647C0 5.31765 1.08 4.20588 2.4 4.20588H3.6ZM9.6 2.97059V4.20588H14.4V2.97059H9.6Z" fill="#959AA2"/>
</svg>
