<svg width="12" height="16" viewBox="0 0 12 16" fill="none" xmlns="http://www.w3.org/2000/svg">
<g clip-path="url(#clip0_401_95)">
<path d="M11.525 2.594C11.785 2.594 12 2.853 12 3.181V3.485C12 3.806 11.784 4.072 11.525 4.072H0.475C0.215 4.072 0 3.806 0 3.485V3.181C0 2.853 0.216 2.594 0.476 2.594H2.42C2.815 2.594 3.158 2.257 3.247 1.782L3.349 1.237C3.507 0.494 4.028 0 4.624 0H7.376C7.966 0 8.492 0.494 8.645 1.198L8.754 1.781C8.842 2.257 9.185 2.594 9.581 2.594H11.525ZM10.537 13.707C10.74 11.437 11.096 6.047 11.096 5.992C11.1095 5.83386 11.067 5.676 10.976 5.546C10.9358 5.49008 10.8834 5.44407 10.8228 5.41148C10.7621 5.3789 10.6948 5.36061 10.626 5.358H1.38C1.31117 5.35985 1.24374 5.37782 1.18313 5.41047C1.12251 5.44312 1.07041 5.48954 1.031 5.546C0.940363 5.67646 0.895685 5.83336 0.904 5.992C0.906 6.002 0.918 6.192 0.94 6.509C1.034 7.919 1.298 11.849 1.468 13.707C1.589 15.077 2.338 15.937 3.423 15.969C4.26 15.992 5.122 16 6.003 16C6.834 16 7.678 15.992 8.541 15.969C9.663 15.946 10.411 15.1 10.538 13.707H10.537Z" fill="#959AA2"/>
</g>
<defs>
<clipPath id="clip0_401_95">
<rect width="12" height="16" fill="white"/>
</clipPath>
</defs>
</svg>
