<svg width="14" height="14" viewBox="0 0 14 14" fill="none" xmlns="http://www.w3.org/2000/svg">
<g clip-path="url(#clip0_401_412)">
<path d="M0.307989 1.79499C0.205191 1.69853 0.122826 1.5824 0.0657893 1.45348C0.00875203 1.32457 -0.0217948 1.18551 -0.0240368 1.04456C-0.0262789 0.903613 -0.00017029 0.76365 0.052738 0.632989C0.105646 0.502328 0.184275 0.383632 0.283954 0.283954C0.383632 0.184275 0.502328 0.105646 0.632989 0.052738C0.76365 -0.00017029 0.903613 -0.0262789 1.04456 -0.0240368C1.18551 -0.0217948 1.32457 0.00875203 1.45348 0.0657893C1.5824 0.122826 1.69853 0.205191 1.79499 0.307989L13.692 12.205C13.7896 12.3026 13.8671 12.4185 13.9199 12.5461C13.9728 12.6737 14 12.8104 14 12.9485C14 13.0866 13.9728 13.2233 13.9199 13.3509C13.8671 13.4784 13.7896 13.5944 13.692 13.692C13.5944 13.7896 13.4784 13.8671 13.3509 13.9199C13.2233 13.9728 13.0866 14 12.9485 14C12.8104 14 12.6737 13.9728 12.5461 13.9199C12.4185 13.8671 12.3026 13.7896 12.205 13.692L0.307989 1.79499Z" fill="white"/>
<path d="M1.79497 13.692C1.69733 13.7896 1.58142 13.8671 1.45385 13.9199C1.32628 13.9728 1.18955 14 1.05147 14C0.913387 14 0.776658 13.9728 0.649089 13.9199C0.521519 13.8671 0.405606 13.7896 0.307968 13.692C0.21033 13.5944 0.132879 13.4784 0.0800382 13.3509C0.027197 13.2233 -2.05756e-09 13.0866 0 12.9485C2.05756e-09 12.8104 0.027197 12.6737 0.0800382 12.5461C0.132879 12.4185 0.21033 12.3026 0.307968 12.205L12.205 0.307989C12.3014 0.205191 12.4176 0.122826 12.5465 0.0657893C12.6754 0.00875203 12.8144 -0.0217948 12.9554 -0.0240368C13.0963 -0.0262789 13.2363 -0.00017029 13.367 0.052738C13.4976 0.105646 13.6163 0.184275 13.716 0.283954C13.8157 0.383632 13.8943 0.502328 13.9472 0.632989C14.0001 0.76365 14.0262 0.903613 14.024 1.04456C14.0218 1.18551 13.9912 1.32457 13.9342 1.45348C13.8771 1.5824 13.7948 1.69853 13.692 1.79499L1.79497 13.692Z" fill="white"/>
</g>
<defs>
<clipPath id="clip0_401_412">
<rect width="14" height="14" fill="white"/>
</clipPath>
</defs>
</svg>
