<svg width="25" height="24" viewBox="0 0 25 24" fill="none" xmlns="http://www.w3.org/2000/svg">
<g clip-path="url(#clip0_401_423)">
<path d="M12.8336 4.64C15.1485 4.64 16.7085 5.613 17.5992 6.427L21.0765 3.12C18.9408 1.187 16.161 0 12.8336 0C8.01274 0 3.85106 2.693 1.82407 6.613L5.80962 9.627C6.80802 6.733 9.57375 4.64 12.8336 4.64V4.64ZM24.6645 12.267C24.6645 11.28 24.582 10.56 24.4038 9.813H12.8336V14.267H19.6252C19.4883 15.373 18.7496 17.04 17.106 18.16L20.995 21.093C23.3229 19 24.6645 15.92 24.6645 12.267ZM5.8227 14.373C5.55337 13.6103 5.41424 12.8083 5.41106 12C5.41106 11.173 5.56203 10.373 5.8076 9.627L1.82407 6.613C0.962189 8.2797 0.511649 10.1262 0.509644 12C0.509644 13.933 0.988715 15.76 1.82407 17.387L5.8227 14.373V14.373Z" fill="#959AA2"/>
<path d="M12.8336 24C16.161 24 18.9549 22.933 20.995 21.093L17.106 18.16C16.0654 18.867 14.6684 19.36 12.8336 19.36C11.2873 19.3603 9.77961 18.8795 8.52223 17.9851C7.26486 17.0907 6.32086 15.8276 5.82271 14.373L1.83716 17.387C3.86516 21.307 8.01476 24 12.8347 24H12.8336Z" fill="#959AA2"/>
</g>
<defs>
<clipPath id="clip0_401_423">
<rect width="24.1548" height="24" fill="white" transform="translate(0.509644)"/>
</clipPath>
</defs>
</svg>
