<svg width="37" height="48" viewBox="0 0 37 48" fill="none" xmlns="http://www.w3.org/2000/svg">
<g clip-path="url(#clip0_401_15)">
<path d="M17.4723 46.6791C26.5543 46.6791 33.9167 39.3812 33.9167 30.3787C33.9167 21.3763 26.5543 14.0784 17.4723 14.0784C8.39026 14.0784 1.02783 21.3763 1.02783 30.3787C1.02783 39.3812 8.39026 46.6791 17.4723 46.6791Z" fill="#BD132B" stroke="black" stroke-width="2"/>
<path d="M23.645 15.0861C21.1825 4.34309 33.3688 11.3196 31.7778 3.45166" stroke="black" stroke-width="2"/>
<path d="M25.6663 10.4353L22.7215 9.29256C21.0956 8.66162 19.2616 9.45662 18.6251 11.0682C17.9886 12.6799 18.7906 14.4978 20.4165 15.1287L23.3613 16.2715C24.9872 16.9025 26.8212 16.1075 27.4577 14.4959C28.0942 12.8842 27.2922 11.0663 25.6663 10.4353Z" fill="black"/>
<path d="M32.9425 3.0563L33.0031 3.29266L33.2261 3.19282L35.3351 2.24536L33.9332 4.071L33.7852 4.26457L34.0042 4.37663L36.0648 5.41986L33.7503 5.47283L33.5047 5.47793L33.554 5.71734L34.0165 7.96577L32.5313 6.20533L32.3741 6.01788L32.2168 6.20533L30.7317 7.96577L31.1942 5.71734L31.2435 5.47793L30.9969 5.47283L28.6833 5.41986L30.7451 4.37663L30.964 4.26457L30.815 4.071L29.4141 2.24434L31.5231 3.1918L31.7472 3.29367L31.8068 3.0563L32.3751 0.831299L32.9425 3.0563Z" fill="#FFD700" stroke="url(#paint0_linear_401_15)" stroke-width="0.4"/>
<path d="M28.3078 24.533C29.3979 23.8551 29.4897 22.0545 28.5129 20.5112C27.5361 18.9679 25.8606 18.2664 24.7706 18.9442C23.6805 19.6221 23.5887 21.4227 24.5655 22.966C25.5423 24.5093 27.2178 25.2109 28.3078 24.533Z" fill="white"/>
<path d="M26.4353 30.4321C27.1212 30.0157 27.1408 28.81 26.4791 27.739C25.8174 26.6681 24.725 26.1375 24.0391 26.5539C23.3532 26.9703 23.3335 28.176 23.9953 29.247C24.657 30.3179 25.7494 30.8485 26.4353 30.4321Z" fill="white"/>
<path d="M5.87591 21.21C-1.53848 32.4511 7.01468 45.3121 17.4723 44.6143C5.83068 39.336 3.96732 30.7192 5.87591 21.211V21.21Z" fill="#7A0E1D"/>
</g>
<defs>
<linearGradient id="paint0_linear_401_15" x1="32.3751" y1="-2.04842e-05" x2="32.3751" y2="9.16894" gradientUnits="userSpaceOnUse">
<stop stop-color="#FF0000"/>
<stop offset="1" stop-color="#FFBA53"/>
</linearGradient>
<clipPath id="clip0_401_15">
<rect width="37" height="47.8824" fill="white"/>
</clipPath>
</defs>
</svg>
