<svg width="19" height="25" viewBox="0 0 19 25" fill="none" xmlns="http://www.w3.org/2000/svg">
<path d="M17.3024 7.82285C17.8769 7.10478 19.5914 4.73681 18.7907 2.79626C18.2772 1.5909 16.9978 0.88137 14.9612 0.684749C13.4555 0.565069 11.9324 1.31735 10.4442 2.03544C7.99849 3.24934 6.39702 3.8734 4.94355 2.53981C4.85383 2.45785 4.74855 2.39406 4.63373 2.35207C4.51891 2.31008 4.39679 2.29072 4.27435 2.29509C4.15191 2.29945 4.03154 2.32746 3.92012 2.37752C3.80871 2.42758 3.70842 2.49869 3.62498 2.58682C3.54155 2.67495 3.4766 2.77835 3.43385 2.89113C3.39111 3.00391 3.37139 3.12386 3.37583 3.24412C3.38028 3.36438 3.4088 3.48261 3.45976 3.59204C3.51072 3.70148 3.58313 3.79999 3.67285 3.88194C6.17944 6.18152 9.01674 4.7881 11.3144 3.67677C12.6199 3.04418 13.8471 2.42867 14.7958 2.52271C15.5183 2.5911 16.7715 2.80481 17.0587 3.48015C17.3459 4.1555 16.5801 5.7028 15.9708 6.51492L15.0482 5.60877C14.9616 5.52295 14.8586 5.45484 14.7451 5.40835C14.6315 5.36187 14.5098 5.33794 14.3868 5.33794C14.2637 5.33794 14.142 5.36187 14.0284 5.40835C13.9149 5.45484 13.8119 5.52295 13.7253 5.60877L12.4285 6.88251C11.3616 6.4568 10.2205 6.23903 9.06899 6.24136C7.2753 6.24136 5.52191 6.76379 4.03053 7.74261C2.53914 8.72141 1.37675 10.1126 0.690339 11.7402C0.00392952 13.3679 -0.175667 15.1589 0.174262 16.8869C0.52419 18.6148 1.38793 20.2019 2.65624 21.4478C3.92456 22.6935 5.5405 23.5418 7.29971 23.8856C9.05891 24.2293 10.8824 24.0529 12.5395 23.3787C14.1967 22.7045 15.613 21.5628 16.6096 20.0979C17.6061 18.6331 18.138 16.9108 18.138 15.149C18.1389 13.7973 17.8232 12.4636 17.2154 11.2509L18.3468 10.1395C18.4342 10.0545 18.5035 9.95334 18.5509 9.84182C18.5982 9.73031 18.6226 9.61068 18.6226 9.48988C18.6226 9.36901 18.5982 9.24939 18.5509 9.13787C18.5035 9.02643 18.4342 8.92522 18.3468 8.84016L17.3024 7.82285Z" fill="#959AA2"/>
</svg>
