<svg width="80" height="80" viewBox="0 0 80 80" fill="none" xmlns="http://www.w3.org/2000/svg">
<path d="M0 20C0 8.95431 8.95431 0 20 0H80V60C80 71.0457 71.0457 80 60 80H20C8.95431 80 0 71.0457 0 60V20Z" fill="#FF3658"/>
<path d="M41.4723 62.6791C50.5543 62.6791 57.9167 55.3812 57.9167 46.3787C57.9167 37.3763 50.5543 30.0784 41.4723 30.0784C32.3903 30.0784 25.0278 37.3763 25.0278 46.3787C25.0278 55.3812 32.3903 62.6791 41.4723 62.6791Z" fill="#BD132B" stroke="black" stroke-width="2"/>
<path d="M47.645 31.0861C45.1825 20.3431 57.3688 27.3196 55.7778 19.4517" stroke="black" stroke-width="2"/>
<path d="M49.6663 26.4353L46.7215 25.2926C45.0956 24.6616 43.2616 25.4566 42.6251 27.0682C41.9886 28.6799 42.7906 30.4978 44.4165 31.1287L47.3613 32.2715C48.9872 32.9025 50.8212 32.1075 51.4577 30.4959C52.0942 28.8842 51.2922 27.0663 49.6663 26.4353Z" fill="black"/>
<path d="M56.9425 19.0563L57.0031 19.2927L57.2261 19.1928L59.3351 18.2454L57.9332 20.071L57.7852 20.2646L58.0042 20.3766L60.0648 21.4199L57.7503 21.4728L57.5047 21.4779L57.554 21.7173L58.0165 23.9658L56.5313 22.2053L56.3741 22.0179L56.2168 22.2053L54.7317 23.9658L55.1942 21.7173L55.2435 21.4779L54.9969 21.4728L52.6833 21.4199L54.7451 20.3766L54.964 20.2646L54.815 20.071L53.4141 18.2443L55.5231 19.1918L55.7472 19.2937L55.8068 19.0563L56.3751 16.8313L56.9425 19.0563Z" fill="#FFD700" stroke="url(#paint0_linear_401_52)" stroke-width="0.4"/>
<path d="M52.3078 40.533C53.3979 39.8551 53.4897 38.0545 52.5129 36.5112C51.5361 34.9679 49.8606 34.2664 48.7706 34.9442C47.6805 35.6221 47.5887 37.4227 48.5655 38.966C49.5423 40.5093 51.2178 41.2109 52.3078 40.533Z" fill="white"/>
<path d="M50.4353 46.4321C51.1212 46.0157 51.1408 44.81 50.4791 43.739C49.8174 42.6681 48.725 42.1375 48.0391 42.5539C47.3532 42.9703 47.3335 44.176 47.9953 45.247C48.657 46.3179 49.7494 46.8485 50.4353 46.4321Z" fill="white"/>
<path d="M29.8759 37.21C22.4615 48.4511 31.0147 61.3121 41.4723 60.6143C29.8307 55.336 27.9673 46.7192 29.8759 37.211V37.21Z" fill="#7A0E1D"/>
<defs>
<linearGradient id="paint0_linear_401_52" x1="56.3751" y1="16" x2="56.3751" y2="25.1689" gradientUnits="userSpaceOnUse">
<stop stop-color="#FF0000"/>
<stop offset="1" stop-color="#FFBA53"/>
</linearGradient>
</defs>
</svg>
