<svg width="16" height="18" viewBox="0 0 16 18" fill="none" xmlns="http://www.w3.org/2000/svg">
<path fill-rule="evenodd" clip-rule="evenodd" d="M7.50206 1.326C6.75206 1.326 2.02206 2.992 1.47606 3.448C1.31606 3.61 1.30906 3.891 1.34306 5.773C1.35906 6.681 1.38106 7.913 1.38106 9.62C1.38106 14.22 6.44106 16.261 7.50106 16.637C8.56106 16.259 13.6231 14.206 13.6231 9.62C13.6231 7.912 13.6461 6.678 13.6631 5.77C13.6961 3.89 13.6901 3.609 13.5191 3.439C12.9841 2.992 8.25206 1.326 7.50206 1.326ZM7.50206 18C7.43702 18.0004 7.37229 17.9909 7.31006 17.972C7.01406 17.882 0.0540606 15.706 0.0540606 9.62C0.0540606 7.925 0.0320606 6.698 0.0160606 5.798C-0.0239394 3.549 -0.0339394 3.081 0.548061 2.501C1.24206 1.805 6.49806 0 7.50206 0C8.50406 0 13.7611 1.805 14.4571 2.5C15.0371 3.08 15.0271 3.55 14.9871 5.796C14.9711 6.696 14.9491 7.922 14.9491 9.62C14.9491 15.706 7.98906 17.883 7.69406 17.972C7.63183 17.9909 7.5671 18.0004 7.50206 18Z" fill="#959AA2"/>
</svg>
