<svg width="22" height="18" viewBox="0 0 22 18" fill="none" xmlns="http://www.w3.org/2000/svg">
<g clip-path="url(#clip0_401_508)">
<path fill-rule="evenodd" clip-rule="evenodd" d="M9.88999 1.74803C8.95699 1.74803 7.76499 2.77103 6.77299 3.62303C5.81799 4.44203 5.06399 5.09003 4.31299 5.15003C4.02334 5.17166 3.73328 5.18733 3.44299 5.19703C2.63999 5.22603 2.43699 5.24503 2.07499 5.56803C1.59999 5.99003 1.60799 7.71203 1.61199 8.73903L1.61299 8.99603V9.25703C1.60799 10.286 1.59999 12.008 2.07499 12.429C2.43599 12.752 2.63899 12.771 3.43899 12.802C3.69099 12.81 3.97899 12.822 4.31199 12.849C5.06399 12.908 5.81799 13.556 6.77199 14.374C7.95699 15.39 9.42399 16.65 10.397 16.126C11.211 15.364 11.298 13.341 11.298 8.99803C11.298 4.65603 11.211 2.63403 10.398 1.87003C10.2412 1.78734 10.0662 1.74538 9.88899 1.74803H9.88999ZM9.89999 18.001C8.40599 18.001 6.92499 16.729 5.77099 15.74C5.25099 15.293 4.46299 14.617 4.19099 14.587C3.92143 14.5653 3.65133 14.551 3.38099 14.544C2.52499 14.51 1.84699 14.486 1.05099 13.775C-0.0160125 12.826 -0.00601252 10.843 -1.25239e-05 9.25003L0.00198748 9.00003V8.74903C-0.00601252 7.15503 -0.0160125 5.17303 1.04999 4.22503C1.84799 3.51503 2.52699 3.48903 3.38599 3.45703C3.61999 3.44703 3.88599 3.43903 4.19399 3.41403C4.46399 3.38303 5.25099 2.70703 5.77099 2.26003C7.27399 0.970032 9.33099 -0.790968 11.25 0.390032C11.2836 0.411446 11.3157 0.43517 11.346 0.461032C12.842 1.73303 12.91 4.13103 12.91 9.00003C12.91 13.87 12.843 16.268 11.346 17.54C11.3155 17.5662 11.2831 17.5899 11.249 17.611C10.804 17.885 10.352 18.001 9.90099 18.001H9.89999ZM19.153 16.95C18.9866 16.9494 18.825 16.8942 18.693 16.793C18.328 16.519 18.238 15.977 18.493 15.581C19.7516 13.6168 20.4206 11.3329 20.4206 9.00003C20.4206 6.66718 19.7516 4.38324 18.493 2.41903C18.238 2.02403 18.328 1.48203 18.694 1.20703C19.059 0.932032 19.56 1.03003 19.814 1.42703C22.728 5.95903 22.728 12.047 19.814 16.577C19.744 16.6897 19.6467 16.7829 19.5312 16.8481C19.4157 16.9133 19.2856 16.9484 19.153 16.95Z" fill="#959AA2"/>
<path fill-rule="evenodd" clip-rule="evenodd" d="M16.463 14.152C16.3213 14.1515 16.1826 14.1109 16.063 14.035C15.677 13.796 15.544 13.263 15.765 12.848C17.023 10.478 17.023 7.53104 15.765 5.15404C15.545 4.73604 15.678 4.20404 16.064 3.96404C16.451 3.73004 16.941 3.87104 17.163 4.28804C18.703 7.20004 18.703 10.811 17.163 13.714C17.0976 13.8442 16.9977 13.9538 16.8743 14.031C16.7509 14.1083 16.6086 14.1501 16.463 14.152Z" fill="#959AA2"/>
</g>
<defs>
<clipPath id="clip0_401_508">
<rect width="22" height="18" fill="white"/>
</clipPath>
</defs>
</svg>
