<svg width="33" height="18" viewBox="0 0 33 18" fill="none" xmlns="http://www.w3.org/2000/svg">
<path fill-rule="evenodd" clip-rule="evenodd" d="M31.5195 1.25C31.758 0.545 31.5195 0.032 30.4627 0.032H26.9492C26.0625 0.032 25.6529 0.48 25.4144 0.961C25.4144 0.961 23.6058 5.061 21.0816 7.719C20.2634 8.488 19.888 8.744 19.4451 8.744C19.2056 8.744 18.8986 8.488 18.8986 7.783V1.217C18.8986 0.384 18.6269 0 17.8761 0H12.3496C11.8031 0 11.4619 0.384 11.4619 0.769C11.4619 1.569 12.724 1.762 12.8609 4.004V8.872C12.8609 9.929 12.6566 10.121 12.2128 10.121C11.0191 10.121 8.11952 5.989 6.38037 1.281C6.03918 0.352 5.699 0 4.81131 0H1.26558C0.24202 0 0.0709229 0.448 0.0709229 0.929C0.0709229 1.794 1.26457 6.149 5.63056 11.915C8.52914 15.855 12.6576 17.968 16.3754 17.968C18.6259 17.968 18.8996 17.488 18.8996 16.687V13.708C18.8996 12.748 19.1039 12.588 19.8205 12.588C20.3318 12.588 21.2527 12.843 23.333 14.733C25.7203 16.975 26.131 18 27.4605 18H30.973C31.9966 18 32.4746 17.52 32.2009 16.59C31.8949 15.662 30.7355 14.317 29.2339 12.715C28.4156 11.819 27.1877 10.825 26.8123 10.345C26.3011 9.705 26.4369 9.448 26.8123 8.872C26.7781 8.872 31.0757 3.171 31.5195 1.249V1.25Z" fill="#959AA2"/>
</svg>
